  0
SECTION
  2
ENTITIES
  0
CIRCLE
  8
0
 10
430.6
 20
-9.0
 30
0.0
 40
3.0
  0
CIRCLE
  8
0
 10
430.6
 20
-521.6
 30
0.0
 40
3.0
  0
CIRCLE
  8
0
 10
430.6
 20
-542.6
 30
0.0
 40
3.0
  0
CIRCLE
  8
0
 10
40.0
 20
-9.0
 30
0.0
 40
3.0
  0
CIRCLE
  8
0
 10
40.0
 20
-521.6
 30
0.0
 40
3.0
  0
CIRCLE
  8
0
 10
40.0
 20
-542.6
 30
0.0
 40
3.0
  0
POLYLINE
  8
0
 66
     1
 10
0.0
 20
0.0
 30
0.0
 70
     1
  0
VERTEX
  8
0
 10
0.0
 20
0.0
 30
0.0
  0
VERTEX
  8
0
 10
470.6
 20
0.0
 30
0.0
  0
VERTEX
  8
0
 10
470.6
 20
-36.65
 30
0.0
 42
2.414214
  0
VERTEX
  8
0
 10
471.95
 20
-38.0
 30
0.0
  0
VERTEX
  8
0
 10
489.8
 20
-38.0
 30
0.0
  0
VERTEX
  8
0
 10
489.8
 20
-28.0
 30
0.0
  0
VERTEX
  8
0
 10
508.6
 20
-28.0
 30
0.0
  0
VERTEX
  8
0
 10
508.6
 20
-523.6
 30
0.0
  0
VERTEX
  8
0
 10
489.8
 20
-523.6
 30
0.0
  0
VERTEX
  8
0
 10
489.8
 20
-513.6
 30
0.0
  0
VERTEX
  8
0
 10
471.95
 20
-513.6
 30
0.0
 42
2.414214
  0
VERTEX
  8
0
 10
470.6
 20
-514.95
 30
0.0
  0
VERTEX
  8
0
 10
470.6
 20
-551.6
 30
0.0
  0
VERTEX
  8
0
 10
0.0
 20
-551.6
 30
0.0
  0
VERTEX
  8
0
 10
0.0
 20
-514.95
 30
0.0
 42
2.414214
  0
VERTEX
  8
0
 10
-1.35
 20
-513.6
 30
0.0
  0
VERTEX
  8
0
 10
-19.2
 20
-513.6
 30
0.0
  0
VERTEX
  8
0
 10
-19.2
 20
-523.6
 30
0.0
  0
VERTEX
  8
0
 10
-38.0
 20
-523.6
 30
0.0
  0
VERTEX
  8
0
 10
-38.0
 20
-28.0
 30
0.0
  0
VERTEX
  8
0
 10
-19.2
 20
-28.0
 30
0.0
  0
VERTEX
  8
0
 10
-19.2
 20
-38.0
 30
0.0
  0
VERTEX
  8
0
 10
-1.35
 20
-38.0
 30
0.0
 42
2.414214
  0
VERTEX
  8
0
 10
0.0
 20
-36.65
 30
0.0
  0
SEQEND
  8
0
  0
CIRCLE
  8
0
 10
235.3
 20
-542.6
 30
0.0
 40
3.0
  0
CIRCLE
  8
0
 10
235.3
 20
-9.0
 30
0.0
 40
3.0
  0
ENDSEC
  0
EOF
